<?xml version="1.0" standalone="no"?>
<svg xmlns="http://www.w3.org/2000/svg" viewBox="0 0 1440 320">
    <path fill="#7FDBB0" fill-opacity="1"
        d="M0,0L24,0C48,0,96,0,144,21.3C192,43,240,85,288,90.7C336,96,384,64,432,80C480,96,528,160,576,186.7C624,213,672,203,720,186.7C768,171,816,149,864,170.7C912,192,960,256,1008,261.3C1056,267,1104,213,1152,165.3C1200,117,1248,75,1296,69.3C1344,64,1392,96,1416,112L1440,128L1440,320L1416,320C1392,320,1344,320,1296,320C1248,320,1200,320,1152,320C1104,320,1056,320,1008,320C960,320,912,320,864,320C816,320,768,320,720,320C672,320,624,320,576,320C528,320,480,320,432,320C384,320,336,320,288,320C240,320,192,320,144,320C96,320,48,320,24,320L0,320Z"></path>
</svg>